<?xml version="1.0" encoding="UTF-8" ?>
<!DOCTYPE svg PUBLIC "-//W3C//DTD SVG 1.1//EN" "http://www.w3.org/Graphics/SVG/1.1/DTD/svg11.dtd">
<svg width="1350pt" height="571pt" viewBox="0 0 1350 571" version="1.1" xmlns="http://www.w3.org/2000/svg">
<g id="#00ccffff">
<path fill="#00ccff" opacity="1.00" d=" M 896.39 0.96 C 897.97 0.81 900.12 -0.06 901.29 1.52 C 904.73 6.08 906.93 11.54 910.91 15.71 C 916.30 14.73 921.51 12.86 926.93 12.05 C 929.46 11.42 931.51 14.83 930.01 16.90 C 926.99 21.55 922.19 25.07 919.86 30.09 C 921.47 36.29 928.00 40.67 928.21 47.38 C 927.00 48.13 925.75 49.44 924.20 48.83 C 918.97 47.24 914.17 44.46 908.93 42.92 C 904.39 46.74 901.16 51.85 897.10 56.15 C 895.30 56.04 892.80 56.19 892.32 53.95 C 892.08 48.19 893.45 42.47 893.12 36.69 C 888.22 33.62 882.47 32.34 877.39 29.65 C 875.28 28.36 875.66 24.82 878.00 24.03 C 883.25 22.35 888.78 21.60 894.01 19.79 C 895.89 13.65 894.23 7.03 896.39 0.96 Z" />
<path fill="#00ccff" opacity="1.00" d=" M 824.47 54.36 C 826.44 53.83 828.64 54.39 829.75 56.22 C 833.80 61.94 837.02 68.21 841.00 73.98 C 841.82 75.35 843.48 75.78 845.00 75.47 C 852.10 74.21 858.96 71.73 866.12 70.77 C 869.79 70.01 871.85 75.00 869.65 77.61 C 865.33 83.51 859.89 88.53 855.74 94.54 C 854.61 95.88 855.51 97.49 856.21 98.78 C 859.58 104.68 863.50 110.26 866.73 116.24 C 868.65 119.18 865.36 123.41 862.06 122.43 C 855.17 120.14 848.70 116.71 841.83 114.37 C 840.03 113.41 838.32 114.83 837.18 116.11 C 832.93 120.90 829.02 125.99 824.67 130.68 C 823.15 132.51 820.31 133.22 818.26 131.90 C 816.82 130.70 816.52 128.73 816.68 126.97 C 817.02 120.36 817.89 113.79 818.08 107.18 C 818.23 105.21 816.70 103.73 815.01 103.07 C 809.18 100.51 803.16 98.41 797.42 95.66 C 796.06 94.76 793.96 94.03 793.89 92.12 C 793.35 89.54 795.74 87.27 798.13 86.87 C 804.39 85.30 810.73 83.99 816.94 82.19 C 818.75 81.83 820.06 80.29 820.21 78.46 C 820.96 71.84 821.04 65.15 821.79 58.53 C 821.93 56.80 822.77 55.04 824.47 54.36 Z" />
<path fill="#00ccff" opacity="1.00" d=" M 938.43 64.45 C 940.82 63.55 944.13 64.40 944.86 67.12 C 947.17 74.94 948.32 83.06 950.44 90.93 C 950.85 92.79 952.58 93.97 954.41 94.17 C 962.31 95.27 970.33 95.50 978.21 96.71 C 982.12 97.19 983.38 103.01 980.18 105.18 C 973.50 109.65 966.32 113.33 959.51 117.58 C 957.61 118.62 956.83 120.99 957.44 123.02 C 958.91 130.04 960.55 137.03 962.07 144.04 C 962.48 146.20 962.49 148.99 960.42 150.34 C 958.08 152.28 954.91 150.78 952.99 149.02 C 947.84 144.48 942.86 139.77 937.66 135.31 C 936.15 134.08 934.13 132.72 932.18 133.83 C 924.96 137.57 918.26 142.25 911.02 145.95 C 907.47 148.11 902.94 143.92 904.36 140.18 C 907.13 132.58 910.92 125.39 913.81 117.85 C 914.85 115.69 913.43 113.55 911.81 112.20 C 906.72 107.61 901.55 103.11 896.44 98.54 C 895.38 97.49 894.08 96.46 893.76 94.92 C 892.65 91.80 895.67 88.32 898.93 88.81 C 906.63 89.37 914.30 90.43 922.00 90.97 C 924.17 91.30 926.07 89.72 926.83 87.79 C 929.72 81.33 932.44 74.80 935.26 68.32 C 935.96 66.81 936.70 65.04 938.43 64.45 Z" />
<path fill="#00ccff" opacity="1.00" d=" M 609.00 97.12 C 627.60 85.84 650.17 80.49 671.79 84.00 C 655.85 92.10 641.18 103.01 629.94 117.01 C 617.77 132.09 609.48 150.50 607.39 169.84 C 598.79 167.91 589.54 167.87 581.28 171.24 C 572.20 174.78 565.04 182.25 560.99 191.02 C 559.30 171.36 563.40 151.17 572.87 133.83 C 581.15 118.50 594.17 106.09 609.00 97.12 Z" />
<path fill="#00ccff" opacity="1.00" d=" M 680.56 84.39 C 701.36 87.83 721.45 97.58 735.92 113.08 C 750.73 128.82 757.74 150.65 757.80 172.01 C 752.71 173.35 747.62 174.64 742.55 176.03 C 744.35 156.38 739.37 136.02 728.36 119.60 C 719.26 105.97 705.86 95.59 691.04 88.84 C 687.61 87.21 684.00 86.00 680.56 84.39 Z" />
<path fill="#00ccff" opacity="1.00" d=" M 874.91 162.81 C 877.19 160.44 881.80 158.61 884.18 161.84 C 885.89 164.86 883.73 168.16 882.10 170.70 C 884.70 168.75 887.53 166.48 890.97 166.50 C 893.54 166.65 894.58 169.76 893.84 171.91 C 892.28 176.16 888.71 179.22 885.28 181.98 C 887.69 180.99 890.27 180.09 892.92 180.55 C 895.64 181.74 895.38 185.26 894.32 187.52 C 891.86 192.68 887.72 196.77 883.72 200.75 C 872.96 211.56 859.89 219.63 848.74 229.98 C 837.57 225.40 834.28 212.28 833.16 201.43 C 837.20 197.85 840.81 193.44 841.87 188.00 C 843.90 178.95 844.98 168.56 852.26 161.97 C 854.39 160.18 856.44 162.88 856.43 164.95 C 856.53 171.00 855.87 177.07 856.49 183.12 C 862.77 176.49 868.68 169.50 874.91 162.81 Z" />
<path fill="#00ccff" opacity="1.00" d=" M 586.39 176.56 C 600.25 172.03 616.58 180.49 620.63 194.54 C 623.55 204.02 621.19 215.04 614.08 222.08 C 604.92 231.83 588.48 233.05 577.93 224.87 C 567.27 217.22 563.79 201.56 570.07 190.07 C 573.38 183.60 579.44 178.67 586.39 176.56 Z" />
<path fill="#00ccff" opacity="1.00" d=" M 628.96 213.10 C 671.71 201.89 714.47 190.78 757.23 179.62 C 755.40 186.64 753.45 193.63 751.58 200.64 C 699.77 215.61 647.94 230.50 596.16 245.57 C 590.94 244.05 587.12 240.04 583.67 236.07 C 593.03 238.16 603.21 237.55 611.81 233.07 C 619.82 228.89 625.58 221.34 628.96 213.10 Z" />
<path fill="#00ccff" opacity="1.00" d=" M 773.38 226.88 C 790.57 220.21 808.01 213.50 823.35 203.07 C 825.70 215.78 829.12 229.94 839.98 238.17 C 825.03 253.38 805.57 266.50 783.57 267.09 C 783.05 253.15 779.05 239.56 773.38 226.88 Z" />
<path fill="#00ccff" opacity="1.00" d=" M 751.44 208.55 C 754.42 207.55 758.38 206.46 760.75 209.31 C 764.16 212.47 762.45 218.86 757.86 219.81 C 704.95 235.13 652.03 250.45 599.12 265.75 C 594.45 267.91 589.01 262.76 590.79 258.01 C 591.38 255.61 593.56 254.09 595.88 253.60 C 647.73 238.60 699.59 223.59 751.44 208.55 Z" />
<path fill="#00ccff" opacity="1.00" d=" M 329.19 216.18 C 337.35 214.86 346.50 216.59 352.53 222.57 C 362.41 231.61 361.48 249.65 350.48 257.45 C 344.13 262.27 335.59 263.07 327.94 261.72 C 319.76 260.26 312.37 254.14 310.18 246.02 C 308.22 238.72 309.34 230.26 314.33 224.39 C 318.03 219.92 323.47 217.04 329.19 216.18 Z" />
<path fill="#00ccff" opacity="1.00" d=" M 131.02 219.48 C 141.70 219.53 152.37 219.48 163.04 219.50 C 177.69 262.74 192.31 305.99 207.02 349.20 C 220.05 305.94 233.25 262.74 246.35 219.50 C 262.62 219.50 278.88 219.49 295.14 219.50 C 273.02 282.67 250.93 345.84 228.81 409.00 C 214.71 408.98 200.61 409.04 186.51 408.97 C 173.59 370.30 160.31 331.75 147.24 293.13 C 134.57 331.87 121.61 370.51 108.19 409.00 C 94.39 409.00 80.59 409.00 66.79 409.00 C 44.58 345.84 22.38 282.67 0.20 219.49 C 16.42 219.50 32.65 219.52 48.87 219.48 C 59.52 253.57 70.90 287.44 80.43 321.86 C 83.00 330.70 85.50 339.56 88.07 348.40 C 102.43 305.44 116.54 262.40 131.02 219.48 Z" />
<path fill="#00ccff" opacity="1.00" d=" M 386.75 219.50 C 401.00 219.49 415.25 219.50 429.50 219.50 C 429.51 282.66 429.49 345.83 429.51 408.99 C 415.25 409.01 401.00 409.00 386.75 409.00 C 386.75 345.83 386.75 282.67 386.75 219.50 Z" />
<path fill="#00ccff" opacity="1.00" d=" M 460.75 219.50 C 475.00 219.49 489.25 219.50 503.50 219.50 C 503.51 282.66 503.49 345.83 503.51 408.99 C 489.25 409.01 475.00 409.00 460.75 409.00 C 460.75 345.83 460.75 282.67 460.75 219.50 Z" />
<path fill="#00ccff" opacity="1.00" d=" M 1041.75 219.50 C 1056.00 219.49 1070.25 219.50 1084.50 219.50 C 1084.48 242.25 1084.54 265.00 1084.47 287.76 C 1108.72 265.59 1150.84 267.87 1172.62 292.45 C 1184.96 306.09 1190.28 324.86 1190.02 343.00 C 1189.99 361.24 1184.20 380.07 1171.30 393.35 C 1161.58 403.60 1148.05 409.94 1134.05 411.40 C 1122.37 412.51 1110.20 411.51 1099.45 406.52 C 1092.61 403.50 1086.64 398.82 1081.51 393.42 C 1080.67 398.62 1079.74 403.80 1078.89 409.00 C 1066.51 409.00 1054.13 409.00 1041.75 409.00 C 1041.75 345.83 1041.75 282.67 1041.75 219.50 M 1109.18 309.13 C 1097.63 310.99 1088.28 320.66 1085.53 331.84 C 1082.27 344.62 1084.97 359.80 1095.34 368.67 C 1107.72 379.44 1128.86 378.15 1139.55 365.55 C 1147.08 357.04 1148.81 344.76 1146.76 333.88 C 1145.16 324.99 1139.58 316.83 1131.65 312.44 C 1124.88 308.63 1116.74 307.73 1109.18 309.13 Z" />
<path fill="#00ccff" opacity="1.00" d=" M 685.96 245.51 C 709.92 238.61 733.83 231.49 757.79 224.56 C 768.83 235.60 774.11 251.00 776.44 266.14 C 779.08 283.72 778.35 301.78 774.67 319.16 C 771.70 335.99 767.81 353.38 757.68 367.50 C 754.27 372.24 749.70 376.03 744.59 378.80 C 743.27 393.34 741.93 407.87 740.49 422.40 C 745.55 422.39 751.18 423.33 754.66 427.37 C 757.93 431.40 759.27 437.24 757.40 442.17 C 755.20 447.00 750.18 449.71 745.31 451.18 C 738.39 453.41 731.05 452.27 723.93 452.21 C 716.38 451.77 708.70 451.53 701.41 449.35 C 697.75 448.38 695.56 444.74 695.19 441.17 C 694.25 435.72 696.45 430.47 696.81 425.09 C 697.53 416.51 698.43 407.94 699.09 399.35 C 685.70 402.29 671.90 403.10 658.24 402.15 C 657.21 411.77 656.11 421.37 654.98 430.98 C 661.11 430.83 668.10 431.68 672.41 436.54 C 676.46 441.38 676.00 448.39 673.95 453.99 C 672.47 457.49 668.74 459.25 665.30 460.27 C 657.05 462.63 648.39 462.00 639.94 461.50 C 632.13 461.31 622.80 461.30 617.64 454.36 C 612.41 448.34 614.03 440.01 614.17 432.74 C 614.26 423.15 615.35 413.55 614.32 403.98 C 613.90 398.98 613.64 393.98 613.20 388.98 C 608.98 385.89 604.80 382.28 602.81 377.29 C 598.92 367.71 598.13 357.24 597.55 347.02 C 596.52 321.32 598.80 295.58 602.01 270.09 C 626.36 262.99 650.70 255.88 675.03 248.73 C 679.24 257.61 682.81 266.79 685.91 276.11 C 676.98 278.09 668.06 280.06 659.13 282.04 C 652.81 301.59 658.47 322.92 667.79 340.54 C 678.25 337.02 688.69 333.46 699.14 329.90 C 702.51 352.05 703.51 374.58 701.57 396.91 C 705.37 395.45 709.21 394.07 713.07 392.77 C 715.19 370.49 714.44 347.96 711.17 325.83 C 719.31 323.08 727.45 320.32 735.59 317.56 C 737.05 305.42 737.84 292.76 734.00 280.96 C 732.18 275.70 729.31 270.34 724.23 267.62 C 715.59 269.60 706.93 271.48 698.28 273.34 C 694.85 263.78 690.94 254.37 685.96 245.51 M 620.43 380.61 C 629.01 387.56 640.51 390.41 651.40 388.87 C 641.67 383.46 631.28 378.74 623.47 370.56 C 616.07 363.00 611.73 353.12 608.45 343.21 C 604.04 356.57 609.42 372.09 620.43 380.61 Z" />
<path fill="#00ccff" opacity="1.00" d=" M 1255.89 275.08 C 1268.02 271.90 1280.77 271.60 1293.15 273.36 C 1310.33 275.70 1327.20 284.19 1337.38 298.53 C 1349.11 314.67 1351.10 335.79 1347.94 355.00 C 1315.21 355.01 1282.47 354.97 1249.73 355.02 C 1251.04 361.38 1254.75 367.20 1260.12 370.90 C 1268.07 376.79 1278.39 378.23 1288.05 377.68 C 1299.46 376.97 1310.90 373.40 1320.01 366.35 C 1327.48 374.33 1334.88 382.38 1342.39 390.32 C 1328.77 403.12 1310.47 410.18 1292.01 411.93 C 1273.38 413.37 1253.73 411.26 1237.41 401.52 C 1222.49 392.99 1211.75 377.83 1208.21 361.06 C 1204.03 341.56 1206.11 320.03 1217.03 302.99 C 1225.71 289.08 1240.10 279.16 1255.89 275.08 M 1257.79 313.78 C 1253.04 318.04 1250.66 324.29 1250.01 330.53 C 1269.62 330.46 1289.22 330.53 1308.83 330.49 C 1308.23 326.19 1307.34 321.82 1304.98 318.10 C 1300.93 311.52 1293.61 307.55 1286.07 306.57 C 1276.27 305.18 1265.20 306.69 1257.79 313.78 Z" />
<path fill="#00ccff" opacity="1.00" d=" M 566.61 275.54 C 574.06 272.19 582.87 274.42 588.99 279.47 C 585.85 290.01 582.73 300.55 579.64 311.11 C 568.01 309.57 555.54 306.02 547.78 296.62 C 552.02 288.17 557.69 279.55 566.61 275.54 Z" />
<path fill="#00ccff" opacity="1.00" d=" M 312.75 275.25 C 327.00 275.25 341.25 275.24 355.50 275.25 C 355.50 319.83 355.50 364.41 355.51 408.99 C 341.25 409.01 327.00 409.00 312.75 409.00 C 312.75 364.41 312.75 319.83 312.75 275.25 Z" />
<path fill="#00ccff" opacity="1.00" d=" M 666.66 290.10 C 685.13 285.88 703.65 281.93 722.14 277.78 C 727.97 287.43 727.67 299.26 726.86 310.11 C 726.62 310.30 726.15 310.67 725.91 310.86 C 708.13 316.90 690.36 322.98 672.55 328.95 C 667.57 316.75 664.29 303.29 666.66 290.10 Z" />
<path fill="#00ccff" opacity="1.00" d=" M 535.69 357.65 C 532.85 339.98 534.45 320.28 545.54 305.57 C 554.37 313.88 566.33 318.39 578.34 319.14 C 575.19 334.12 572.75 349.27 571.10 364.50 C 560.05 359.84 547.87 354.79 535.69 357.65 Z" />
<path fill="#00ccff" opacity="1.00" d=" M 539.43 368.85 C 549.30 363.74 560.64 368.56 569.14 374.20 C 569.27 379.17 570.48 384.29 573.73 388.18 C 578.79 394.56 584.91 400.77 586.43 409.09 C 586.59 410.52 586.95 413.23 584.75 413.20 C 582.41 413.16 580.63 411.46 579.00 410.01 C 575.76 407.06 572.38 404.25 568.74 401.82 C 569.92 409.28 571.13 416.74 572.38 424.19 C 572.76 426.77 573.18 429.59 571.89 432.00 C 570.96 433.98 568.24 434.94 566.36 433.71 C 564.23 432.07 563.53 429.32 562.67 426.91 C 562.81 429.99 562.89 433.36 561.09 436.02 C 559.82 438.07 556.48 437.56 555.32 435.63 C 552.93 432.08 553.10 427.58 552.85 423.49 C 551.85 425.72 551.41 428.66 549.01 429.88 C 545.15 430.83 543.18 426.45 542.34 423.46 C 537.56 405.62 540.72 387.02 539.43 368.85 Z" />
<path fill="#00ccff" opacity="1.00" d=" M 928.68 482.71 C 936.75 476.14 949.44 476.32 957.57 482.73 C 955.76 486.19 953.94 489.63 952.13 493.08 C 948.71 491.29 944.01 490.00 940.71 492.69 C 938.60 494.50 939.07 497.52 938.93 500.00 C 943.37 500.00 947.81 500.00 952.25 500.00 C 952.25 504.33 952.25 508.66 952.25 513.00 C 947.83 513.00 943.41 513.00 939.00 513.00 C 939.00 525.33 939.00 537.67 939.00 550.00 C 933.58 550.00 928.16 550.00 922.75 550.00 C 922.75 537.67 922.74 525.33 922.75 513.00 C 919.83 513.00 916.91 513.00 914.00 513.00 C 914.00 508.66 914.00 504.33 914.00 500.00 C 916.90 500.00 919.81 500.00 922.72 500.00 C 922.28 493.75 923.66 486.91 928.68 482.71 Z" />
<path fill="#00ccff" opacity="1.00" d=" M 68.49 479.01 C 86.41 478.99 104.33 479.00 122.25 479.00 C 122.25 483.50 122.25 488.00 122.25 492.50 C 109.75 492.51 97.25 492.50 84.75 492.50 C 84.75 497.50 84.75 502.50 84.75 507.50 C 96.59 507.50 108.42 507.49 120.25 507.50 C 120.25 512.00 120.25 516.50 120.25 521.00 C 108.42 521.00 96.58 521.00 84.75 521.00 C 84.75 526.16 84.75 531.33 84.75 536.50 C 97.59 536.50 110.42 536.49 123.25 536.50 C 123.25 541.00 123.25 545.50 123.25 550.00 C 105.00 550.00 86.75 550.01 68.49 549.99 C 68.50 526.33 68.50 502.67 68.49 479.01 Z" />
<path fill="#00ccff" opacity="1.00" d=" M 385.00 479.00 C 390.33 479.00 395.66 479.00 401.00 479.00 C 401.00 502.67 401.00 526.33 401.00 550.00 C 396.36 550.00 391.72 549.99 387.08 550.00 C 386.75 548.24 386.44 546.48 386.09 544.74 C 381.52 549.05 375.34 551.55 369.01 551.04 C 359.68 551.33 350.97 544.89 347.89 536.18 C 344.47 526.60 345.35 514.94 351.91 506.87 C 359.73 497.17 375.83 496.15 385.03 504.44 C 384.97 495.96 385.01 487.48 385.00 479.00 M 369.31 513.26 C 361.41 516.06 359.67 527.28 364.65 533.41 C 368.45 538.26 376.25 538.78 380.91 534.89 C 386.12 530.49 386.57 521.88 382.42 516.63 C 379.38 512.85 373.80 511.54 369.31 513.26 Z" />
<path fill="#00ccff" opacity="1.00" d=" M 678.00 479.00 C 683.33 479.00 688.66 479.00 694.00 479.00 C 694.00 502.67 694.00 526.33 694.00 550.00 C 689.34 550.00 684.69 550.00 680.05 550.00 C 679.73 548.19 679.44 546.40 679.16 544.60 C 669.61 554.42 651.14 553.05 643.63 541.41 C 638.88 534.50 638.08 525.54 639.76 517.50 C 641.43 509.87 646.76 502.89 654.26 500.27 C 662.19 497.61 671.70 498.65 678.03 504.44 C 677.97 495.96 678.01 487.48 678.00 479.00 M 662.26 513.28 C 654.39 516.12 652.68 527.32 657.67 533.43 C 661.48 538.28 669.31 538.78 673.96 534.85 C 679.12 530.44 679.56 521.86 675.42 516.62 C 672.36 512.83 666.75 511.53 662.26 513.28 Z" />
<path fill="#00ccff" opacity="1.00" d=" M 794.52 487.44 C 799.85 486.86 805.17 486.33 810.49 485.69 C 810.50 490.45 810.50 495.22 810.50 499.99 C 814.58 500.00 818.66 500.00 822.75 500.00 C 822.75 504.33 822.75 508.66 822.76 513.00 C 818.67 513.00 814.58 513.00 810.50 513.00 C 810.54 519.32 810.43 525.65 810.52 531.97 C 810.42 534.22 811.70 536.69 814.06 537.17 C 816.68 538.10 819.35 536.81 821.86 536.09 C 823.08 540.16 824.36 544.21 825.60 548.28 C 819.62 551.02 812.79 551.78 806.35 550.46 C 800.88 549.18 796.37 544.69 795.35 539.12 C 793.77 530.51 794.78 521.70 794.50 513.00 C 791.74 513.00 788.99 513.00 786.24 513.00 C 786.25 508.66 786.25 504.33 786.24 500.00 C 788.99 500.00 791.74 500.00 794.50 500.00 C 794.50 495.81 794.48 491.62 794.52 487.44 Z" />
<path fill="#00ccff" opacity="1.00" d=" M 1025.52 487.44 C 1030.84 486.86 1036.17 486.33 1041.49 485.69 C 1041.50 490.45 1041.50 495.22 1041.50 499.99 C 1045.58 500.00 1049.66 500.00 1053.75 500.00 C 1053.75 504.33 1053.75 508.66 1053.75 513.00 C 1049.66 513.00 1045.58 513.00 1041.50 513.00 C 1041.53 519.32 1041.43 525.64 1041.52 531.96 C 1041.42 534.20 1042.69 536.68 1045.06 537.17 C 1047.68 538.10 1050.35 536.81 1052.86 536.09 C 1054.08 540.16 1055.36 544.21 1056.60 548.28 C 1050.62 551.02 1043.80 551.77 1037.36 550.46 C 1031.87 549.18 1027.35 544.67 1026.34 539.09 C 1024.78 530.49 1025.78 521.69 1025.50 513.01 C 1022.74 513.00 1019.99 513.00 1017.24 513.00 C 1017.24 508.66 1017.24 504.33 1017.24 500.00 C 1019.99 500.00 1022.74 500.00 1025.50 500.00 C 1025.50 495.81 1025.48 491.62 1025.52 487.44 Z" />
<path fill="#00ccff" opacity="1.00" d=" M 147.43 505.09 C 154.75 496.62 169.90 496.66 176.26 506.25 C 182.25 498.84 192.99 497.37 201.65 500.19 C 208.72 502.58 213.28 509.85 213.48 517.15 C 213.55 528.09 213.47 539.04 213.51 549.99 C 208.25 550.00 203.00 550.00 197.75 550.00 C 197.73 540.99 197.78 531.97 197.74 522.96 C 197.66 519.87 197.27 516.37 194.81 514.21 C 191.08 511.11 184.76 512.48 182.58 516.78 C 181.49 518.62 181.17 520.78 181.24 522.89 C 181.26 531.93 181.25 540.96 181.25 550.00 C 175.91 550.00 170.58 550.00 165.25 550.00 C 165.22 540.32 165.30 530.65 165.22 520.97 C 165.27 517.25 163.01 513.06 158.98 512.62 C 153.50 511.51 148.72 516.57 148.80 521.86 C 148.68 531.23 148.79 540.62 148.76 550.00 C 143.42 550.00 138.08 550.00 132.75 550.00 C 132.75 533.33 132.75 516.67 132.75 500.00 C 137.40 500.00 142.06 499.98 146.71 500.02 C 146.96 501.70 147.20 503.39 147.43 505.09 Z" />
<path fill="#00ccff" opacity="1.00" d=" M 239.57 505.37 C 248.72 496.11 265.81 496.78 274.01 506.96 C 279.62 513.71 280.69 523.08 279.29 531.49 C 277.91 539.15 272.92 546.36 265.56 549.32 C 257.42 552.51 247.41 551.56 240.71 545.66 C 240.80 554.10 240.73 562.55 240.75 571.00 L 224.75 571.00 C 224.75 547.33 224.75 523.67 224.75 500.00 C 229.41 500.00 234.07 499.98 238.73 500.03 C 239.01 501.80 239.29 503.58 239.57 505.37 M 248.22 513.22 C 237.84 516.77 238.31 534.38 249.09 537.03 C 257.07 539.69 265.23 532.00 263.97 523.91 C 264.00 516.15 255.44 510.28 248.22 513.22 Z" />
<path fill="#00ccff" opacity="1.00" d=" M 304.53 499.67 C 312.66 498.16 321.67 498.68 328.78 503.28 C 343.44 512.54 343.44 537.47 328.77 546.73 C 323.81 549.92 317.82 551.24 311.96 551.04 C 304.09 551.28 295.86 548.38 290.72 542.25 C 284.70 535.12 283.75 524.82 286.22 516.08 C 288.60 507.70 296.08 501.37 304.53 499.67 M 308.24 513.23 C 298.11 516.87 298.51 534.15 309.01 537.01 C 316.53 539.63 324.38 532.70 323.77 525.04 C 324.49 517.01 315.91 509.98 308.24 513.23 Z" />
<path fill="#00ccff" opacity="1.00" d=" M 411.50 515.40 C 414.26 506.92 422.12 500.66 430.87 499.35 C 436.86 498.61 443.18 498.68 448.84 501.02 C 454.47 503.19 459.09 507.80 461.29 513.42 C 463.44 518.65 463.45 524.45 462.75 529.98 C 450.52 530.07 438.30 529.88 426.08 530.08 C 427.30 533.57 430.17 536.27 433.76 537.20 C 440.05 538.71 446.91 537.49 452.31 533.91 C 455.06 536.94 458.01 539.78 460.71 542.86 C 454.54 548.34 446.30 551.38 438.05 551.04 C 430.08 551.31 421.68 548.77 416.17 542.79 C 409.59 535.49 408.55 524.49 411.50 515.40 M 426.23 520.94 C 433.55 521.05 440.88 521.02 448.21 520.95 C 447.49 518.81 447.02 516.37 445.21 514.82 C 439.17 509.54 427.13 512.06 426.23 520.94 Z" />
<path fill="#00ccff" opacity="1.00" d=" M 486.85 505.51 C 492.75 496.90 505.60 497.29 513.10 503.51 C 510.90 507.43 508.56 511.27 506.34 515.18 C 503.22 513.50 499.66 511.75 496.04 512.79 C 490.81 513.61 487.78 519.05 487.81 524.00 C 487.65 532.66 487.80 541.33 487.76 550.00 C 482.42 550.00 477.08 550.00 471.75 550.00 C 471.75 533.33 471.75 516.67 471.75 500.00 C 476.42 500.00 481.10 500.00 485.78 500.00 C 486.13 501.83 486.50 503.67 486.85 505.51 Z" />
<path fill="#00ccff" opacity="1.00" d=" M 515.90 513.79 C 518.98 505.09 527.70 498.67 537.02 498.96 C 543.38 498.44 549.59 501.05 554.16 505.38 C 554.44 503.58 554.74 501.79 555.05 500.00 C 559.70 500.00 564.35 500.00 569.00 500.00 C 569.00 516.67 569.00 533.33 569.00 550.00 C 564.36 550.00 559.73 550.00 555.10 550.00 C 554.74 548.30 554.65 546.53 553.89 544.96 C 544.32 554.15 526.70 553.04 519.02 541.97 C 513.27 533.92 512.63 522.93 515.90 513.79 M 537.26 513.28 C 529.16 516.21 527.59 527.96 533.11 533.95 C 537.24 538.51 545.04 538.62 549.46 534.41 C 553.99 530.01 554.39 522.26 550.82 517.15 C 547.89 512.97 541.96 511.45 537.26 513.28 Z" />
<path fill="#00ccff" opacity="1.00" d=" M 594.59 505.25 C 603.04 496.77 619.33 496.26 626.59 506.50 C 629.74 510.96 630.79 516.58 630.76 521.96 C 630.74 531.30 630.75 540.65 630.75 550.00 C 625.42 550.00 620.08 550.00 614.75 550.00 C 614.74 540.99 614.75 531.99 614.76 522.99 C 614.78 519.89 614.00 516.50 611.52 514.44 C 607.76 511.41 601.72 512.06 598.58 515.69 C 596.49 517.90 595.75 521.01 595.75 523.98 C 595.74 532.65 595.76 541.32 595.75 550.00 C 590.42 550.00 585.08 550.00 579.75 550.00 C 579.75 533.33 579.75 516.67 579.75 500.00 C 584.41 500.01 589.07 499.96 593.73 500.05 C 594.01 501.78 594.29 503.51 594.59 505.25 Z" />
<path fill="#00ccff" opacity="1.00" d=" M 722.47 499.68 C 730.60 498.16 739.60 498.66 746.73 503.24 C 761.43 512.48 761.46 537.45 746.78 546.72 C 741.82 549.92 735.82 551.24 729.97 551.04 C 722.12 551.28 713.91 548.40 708.76 542.31 C 702.73 535.20 701.75 524.93 704.18 516.20 C 706.52 507.78 714.00 501.41 722.47 499.68 M 726.29 513.21 C 715.69 516.92 716.67 535.37 728.03 537.24 C 736.23 539.34 743.35 530.74 741.64 522.94 C 741.19 515.68 733.09 510.40 726.29 513.21 Z" />
<path fill="#00ccff" opacity="1.00" d=" M 1139.85 505.51 C 1145.75 496.90 1158.61 497.28 1166.11 503.52 C 1163.88 507.43 1161.57 511.29 1159.32 515.18 C 1156.22 513.49 1152.67 511.76 1149.07 512.78 C 1143.81 513.59 1140.77 519.06 1140.81 524.03 C 1140.65 532.68 1140.80 541.34 1140.75 550.00 C 1135.42 550.00 1130.08 550.00 1124.75 550.00 C 1124.75 533.33 1124.75 516.67 1124.75 500.00 C 1129.42 500.00 1134.10 500.00 1138.78 500.00 C 1139.12 501.83 1139.50 503.67 1139.85 505.51 Z" />
<path fill="#00ccff" opacity="1.00" d=" M 1186.47 499.68 C 1194.60 498.16 1203.61 498.66 1210.75 503.25 C 1225.45 512.50 1225.45 537.51 1210.73 546.76 C 1205.78 549.93 1199.81 551.24 1193.98 551.04 C 1186.12 551.28 1177.89 548.40 1172.73 542.27 C 1166.71 535.14 1165.75 524.85 1168.21 516.11 C 1170.57 507.73 1178.03 501.40 1186.47 499.68 M 1190.22 513.24 C 1180.09 516.90 1180.52 534.20 1191.05 537.02 C 1198.56 539.61 1206.39 532.67 1205.77 525.02 C 1206.48 516.99 1197.88 509.97 1190.22 513.24 Z" />
<path fill="#00ccff" opacity="1.00" d=" M 832.24 500.00 C 837.58 500.00 842.91 500.00 848.25 500.00 C 848.26 509.35 848.23 518.70 848.26 528.04 C 848.20 531.30 849.66 534.68 852.52 536.40 C 856.50 538.60 862.13 537.36 864.62 533.49 C 866.40 531.08 866.83 527.98 866.77 525.06 C 866.73 516.71 866.75 508.35 866.75 500.00 C 872.08 500.00 877.42 500.00 882.76 500.00 C 882.75 516.67 882.75 533.33 882.75 550.00 C 878.11 550.00 873.47 550.00 868.83 550.00 C 868.54 548.27 868.24 546.53 867.98 544.81 C 859.71 553.31 843.52 553.65 836.40 543.55 C 833.41 539.38 832.20 534.15 832.23 529.07 C 832.25 519.38 832.25 509.69 832.24 500.00 Z" />
<path fill="#00ccff" opacity="1.00" d=" M 959.25 500.00 C 964.58 500.00 969.91 500.00 975.25 500.00 C 975.25 509.01 975.26 518.02 975.24 527.03 C 975.13 529.92 975.78 533.03 977.93 535.12 C 980.75 538.10 985.68 538.10 989.03 536.02 C 992.35 533.90 993.84 529.80 993.76 525.99 C 993.75 517.33 993.74 508.66 993.75 500.00 C 999.08 500.00 1004.42 499.99 1009.76 500.00 C 1009.75 516.67 1009.75 533.33 1009.76 550.00 C 1005.11 550.00 1000.46 550.00 995.83 550.00 C 995.54 548.27 995.24 546.53 994.98 544.81 C 986.71 553.31 970.51 553.65 963.39 543.55 C 960.39 539.35 959.19 534.10 959.23 529.00 C 959.25 519.34 959.25 509.67 959.25 500.00 Z" />
<path fill="#00ccff" opacity="1.00" d=" M 1063.24 500.00 C 1068.58 499.99 1073.91 500.00 1079.25 500.00 C 1079.26 509.33 1079.23 518.66 1079.26 528.00 C 1079.24 530.58 1080.04 533.26 1081.92 535.12 C 1084.74 538.11 1089.71 538.10 1093.06 536.01 C 1096.33 533.89 1097.82 529.84 1097.76 526.06 C 1097.75 517.38 1097.74 508.69 1097.75 500.00 C 1103.08 500.00 1108.42 500.00 1113.76 500.00 C 1113.75 516.67 1113.75 533.33 1113.76 550.00 C 1109.11 550.00 1104.46 550.00 1099.83 550.00 C 1099.54 548.27 1099.24 546.53 1098.98 544.81 C 1090.40 553.70 1073.17 553.56 1066.61 542.37 C 1064.19 538.38 1063.20 533.65 1063.23 529.02 C 1063.25 519.35 1063.25 509.68 1063.24 500.00 Z" />
</g>
</svg>
