<?xml version="1.0" encoding="UTF-8" ?>
<!DOCTYPE svg PUBLIC "-//W3C//DTD SVG 1.1//EN" "http://www.w3.org/Graphics/SVG/1.1/DTD/svg11.dtd">
<svg width="1349pt" height="582pt" viewBox="0 0 1349 582" version="1.1" xmlns="http://www.w3.org/2000/svg">
<g id="#ffffffff">
<path fill="#ffffff" opacity="1.00" d=" M 892.09 4.08 C 892.27 1.65 895.82 0.80 897.26 2.69 C 901.01 6.95 902.79 12.76 907.01 16.59 C 912.45 16.12 917.58 13.99 922.96 13.18 C 925.45 12.43 927.79 16.01 926.02 18.00 C 922.94 22.26 919.00 25.87 916.11 30.27 C 915.11 31.54 916.50 32.90 917.05 34.01 C 919.31 37.74 921.93 41.27 923.84 45.20 C 925.22 47.16 923.41 50.31 920.99 49.81 C 915.52 48.37 910.60 45.30 905.11 43.91 C 900.47 47.27 897.65 52.62 893.60 56.63 C 892.21 57.09 890.74 56.76 889.35 56.71 C 887.23 50.47 890.65 43.56 888.95 37.19 C 884.01 34.49 878.46 33.10 873.50 30.44 C 871.57 29.24 872.12 25.87 874.20 25.18 C 879.30 23.30 884.85 22.94 889.89 20.91 C 890.77 19.82 891.19 18.45 891.14 17.05 C 891.28 12.72 891.35 8.36 892.09 4.08 Z" />
<path fill="#ffffff" opacity="1.00" d=" M 818.34 58.28 C 818.88 55.10 823.37 54.32 825.29 56.71 C 829.57 62.27 832.69 68.62 836.62 74.42 C 837.42 75.59 838.61 76.80 840.17 76.67 C 847.87 75.85 855.16 72.42 862.92 72.10 C 866.20 71.63 867.75 76.34 865.72 78.58 C 861.54 84.07 856.69 89.01 852.44 94.44 C 851.32 95.74 850.92 97.64 851.90 99.13 C 855.60 105.88 860.30 112.07 863.57 119.06 C 862.94 121.17 861.65 123.78 859.00 123.41 C 851.42 121.22 844.47 117.27 836.98 114.84 C 834.88 114.89 833.48 116.80 832.18 118.21 C 828.20 122.87 824.42 127.74 820.15 132.15 C 818.27 134.29 813.83 133.79 813.19 130.74 C 812.69 122.80 814.66 114.92 814.29 106.99 C 813.70 104.55 810.97 103.92 809.01 102.99 C 802.78 100.21 796.08 98.31 790.36 94.49 C 789.92 92.33 790.17 89.46 792.60 88.61 C 799.40 86.48 806.50 85.38 813.32 83.30 C 814.67 82.84 816.22 81.99 816.36 80.38 C 817.52 73.07 817.18 65.60 818.34 58.28 Z" />
<path fill="#ffffff" opacity="1.00" d=" M 934.51 65.66 C 936.82 64.64 940.22 65.46 940.88 68.18 C 942.67 73.98 943.64 79.99 945.04 85.89 C 945.99 89.09 945.74 94.04 949.69 95.14 C 957.84 96.43 966.14 96.60 974.32 97.80 C 977.47 98.24 978.63 101.87 977.64 104.59 C 975.92 107.00 973.05 108.08 970.64 109.61 C 965.64 112.63 960.50 115.42 955.57 118.54 C 953.70 119.64 952.89 121.91 953.50 123.97 C 954.91 131.03 956.63 138.02 958.12 145.05 C 958.79 147.52 958.27 150.71 955.66 151.79 C 953.81 152.05 951.75 152.11 950.33 150.71 C 945.19 146.54 940.54 141.82 935.47 137.56 C 933.57 135.74 930.94 133.27 928.15 134.81 C 920.88 138.56 914.16 143.32 906.83 146.96 C 903.20 148.78 898.99 144.30 900.79 140.74 C 903.63 133.65 906.95 126.76 909.86 119.70 C 910.72 117.80 910.67 115.38 908.94 113.99 C 903.24 108.38 896.84 103.53 891.23 97.83 C 888.71 95.47 890.20 90.02 894.00 90.13 C 902.37 90.10 910.66 91.82 919.02 92.14 C 921.21 92.19 922.57 90.13 923.36 88.34 C 926.17 82.13 928.75 75.82 931.50 69.58 C 932.24 68.13 932.83 66.29 934.51 65.66 Z" />
<path fill="#ffffff" opacity="1.00" d=" M 606.46 97.52 C 623.92 87.25 644.65 82.30 664.84 84.61 C 665.65 84.76 666.43 85.04 667.16 85.46 C 650.26 93.72 635.12 105.78 623.77 120.82 C 612.87 135.30 605.42 152.57 603.46 170.66 C 592.24 168.08 579.63 169.14 570.12 176.09 C 564.38 179.78 560.49 185.53 557.21 191.38 C 555.70 170.33 560.47 148.66 571.64 130.66 C 580.13 116.83 592.54 105.72 606.46 97.52 Z" />
<path fill="#ffffff" opacity="1.00" d=" M 678.89 86.01 C 693.34 88.42 707.17 94.46 719.15 102.87 C 733.93 113.21 744.95 128.72 749.95 146.05 C 752.49 154.75 753.70 163.81 753.93 172.86 C 748.99 174.23 743.99 175.37 739.09 176.87 C 740.26 158.83 736.55 140.30 727.29 124.67 C 718.22 109.05 703.63 97.14 687.29 89.72 C 684.56 88.31 681.53 87.58 678.89 86.01 Z" />
<path fill="#ffffff" opacity="1.00" d=" M 875.42 161.38 C 877.86 160.39 881.03 162.37 880.91 165.08 C 880.83 167.23 879.54 169.09 878.87 171.08 C 881.69 169.71 884.49 167.19 887.84 167.76 C 890.35 168.63 890.14 171.55 889.64 173.66 C 888.36 176.91 885.05 178.73 883.62 181.87 C 886.00 181.93 889.32 180.69 890.82 183.29 C 891.63 186.81 889.86 190.12 887.78 192.81 C 875.97 208.05 858.99 217.84 845.00 230.79 C 834.06 226.41 830.66 213.55 829.59 202.93 C 830.99 200.36 833.72 198.76 835.21 196.21 C 839.45 189.46 839.02 181.10 841.85 173.82 C 843.49 169.63 845.44 165.04 849.44 162.60 C 851.77 161.99 852.55 165.23 852.61 166.96 C 852.33 172.65 852.21 178.36 852.51 184.05 C 857.55 179.93 861.25 174.45 865.84 169.87 C 868.88 166.89 871.05 162.61 875.42 161.38 Z" />
<path fill="#ffffff" opacity="1.00" d=" M 583.36 177.49 C 592.29 175.11 602.46 177.33 609.18 183.79 C 618.61 192.18 620.69 207.32 614.04 218.01 C 608.25 228.07 595.58 233.16 584.37 230.46 C 572.33 227.95 563.07 216.32 563.34 204.02 C 562.93 191.96 571.69 180.47 583.36 177.49 Z" />
<path fill="#ffffff" opacity="1.00" d=" M 625.24 214.17 C 667.87 203.17 710.41 191.83 753.07 180.96 C 751.49 187.90 749.44 194.72 747.61 201.59 C 696.60 216.17 645.66 231.02 594.68 245.69 C 588.48 247.32 583.94 241.19 580.19 237.20 C 591.30 239.82 603.89 238.18 613.01 230.97 C 618.68 226.75 622.47 220.56 625.24 214.17 Z" />
<path fill="#ffffff" opacity="1.00" d=" M 769.84 227.99 C 786.92 221.26 804.29 214.61 819.56 204.22 C 820.28 210.30 821.94 216.24 824.04 221.98 C 826.50 228.57 830.12 235.05 836.02 239.16 C 825.23 250.20 812.35 259.58 797.68 264.72 C 791.95 266.61 785.97 267.96 779.91 267.93 C 779.36 254.08 775.33 240.63 769.84 227.99 Z" />
<path fill="#ffffff" opacity="1.00" d=" M 748.38 209.48 C 751.08 208.50 754.57 207.95 756.74 210.32 C 760.06 213.11 758.81 219.35 754.57 220.48 C 701.56 235.91 648.50 251.18 595.48 266.57 C 593.63 266.97 591.43 267.31 589.78 266.16 C 585.64 263.81 586.09 256.25 591.01 255.12 C 643.42 239.78 695.94 224.76 748.38 209.48 Z" />
<path fill="#ffffff" opacity="1.00" d=" M 325.30 217.30 C 333.15 216.11 341.91 217.60 347.87 223.17 C 357.84 231.63 357.65 249.21 347.49 257.46 C 341.18 262.99 332.17 263.95 324.17 262.62 C 316.62 261.34 309.79 256.10 306.93 248.95 C 304.67 242.74 304.92 235.67 307.69 229.67 C 310.99 222.90 317.94 218.36 325.30 217.30 Z" />
<path fill="#ffffff" opacity="1.00" d=" M 0.00 220.64 C 15.29 220.70 30.59 220.50 45.87 220.74 C 53.69 245.70 61.60 270.63 69.45 295.58 C 73.98 311.38 78.55 327.17 83.03 342.98 C 83.73 344.79 83.59 347.33 85.64 348.26 C 99.70 305.70 113.88 263.19 128.05 220.67 C 138.68 220.61 149.32 220.61 159.95 220.67 C 174.36 263.38 188.97 306.03 203.29 348.77 C 203.64 348.76 204.33 348.75 204.68 348.74 C 217.28 306.41 230.27 264.19 243.10 221.92 C 243.36 220.07 245.70 220.81 246.96 220.61 C 261.95 220.68 276.95 220.59 291.94 220.66 C 269.91 283.73 247.68 346.74 225.81 409.86 C 211.70 409.81 197.57 410.03 183.46 409.75 C 170.90 371.27 157.49 333.07 144.60 294.71 C 144.01 295.40 143.54 296.16 143.17 296.98 C 130.73 334.71 118.22 372.41 105.03 409.89 C 91.34 409.87 77.65 409.86 63.95 409.89 C 44.60 355.22 25.49 300.46 6.21 245.77 C 4.17 240.26 2.65 234.53 0.00 229.27 L 0.00 220.64 Z" />
<path fill="#ffffff" opacity="1.00" d=" M 382.97 220.68 C 397.09 220.60 411.20 220.61 425.32 220.68 C 425.39 283.75 425.38 346.83 425.33 409.90 C 411.20 409.84 397.06 409.89 382.93 409.87 C 382.91 346.81 382.83 283.75 382.97 220.68 Z" />
<path fill="#ffffff" opacity="1.00" d=" M 457.97 220.68 C 472.08 220.60 486.20 220.62 500.32 220.67 C 500.39 283.75 500.38 346.83 500.33 409.90 C 486.19 409.83 472.06 409.89 457.93 409.87 C 457.91 346.81 457.83 283.75 457.97 220.68 Z" />
<path fill="#ffffff" opacity="1.00" d=" M 1037.97 220.68 C 1052.08 220.60 1066.20 220.61 1080.32 220.68 C 1080.41 243.17 1080.35 265.66 1080.36 288.15 C 1082.27 287.79 1083.61 286.26 1085.16 285.18 C 1097.26 275.95 1113.07 272.60 1128.05 274.03 C 1139.82 274.78 1151.33 279.14 1160.69 286.31 C 1170.41 293.63 1177.37 304.19 1181.42 315.58 C 1186.07 329.01 1186.92 343.63 1184.76 357.63 C 1182.16 374.66 1173.38 391.09 1159.21 401.20 C 1148.25 409.23 1134.50 412.99 1121.00 412.65 C 1107.02 412.74 1092.67 408.26 1082.24 398.72 C 1080.62 397.35 1079.33 395.42 1077.19 394.87 C 1076.56 399.91 1075.50 404.89 1074.81 409.92 C 1062.52 409.81 1050.22 409.90 1037.93 409.88 C 1037.90 346.81 1037.83 283.74 1037.97 220.68 M 1107.45 309.65 C 1096.37 310.54 1086.78 318.59 1082.72 328.72 C 1077.88 341.57 1079.49 357.58 1089.16 367.82 C 1100.87 380.29 1123.03 380.15 1134.71 367.70 C 1143.11 358.99 1145.13 345.84 1142.79 334.32 C 1141.47 327.71 1138.03 321.53 1132.95 317.08 C 1126.17 310.84 1116.46 308.48 1107.45 309.65 Z" />
<path fill="#ffffff" opacity="1.00" d=" M 751.56 226.39 C 752.69 226.12 754.31 225.68 755.11 226.86 C 765.40 238.02 770.39 252.97 772.60 267.74 C 775.04 284.97 774.39 302.62 770.82 319.64 C 768.07 335.31 764.57 351.36 756.06 365.03 C 752.23 371.00 747.13 376.40 740.68 379.53 C 739.37 394.19 737.85 408.83 736.63 423.50 C 740.26 423.67 744.08 423.89 747.33 425.72 C 754.04 429.45 756.70 439.64 751.79 445.78 C 745.97 452.41 736.39 453.82 728.01 453.36 C 718.67 452.92 709.22 452.92 700.05 450.89 C 697.21 450.26 694.09 449.05 692.78 446.25 C 690.11 440.81 691.68 434.59 692.87 428.97 C 693.69 419.42 694.66 409.87 695.43 400.31 C 681.90 403.05 668.05 403.86 654.28 403.16 C 653.26 412.79 652.14 422.42 651.06 432.04 C 656.97 431.99 663.51 432.72 668.01 436.98 C 672.27 441.59 672.15 448.60 670.28 454.23 C 669.01 457.80 665.47 459.92 662.03 461.01 C 653.57 463.48 644.66 462.94 635.98 462.36 C 629.10 461.89 621.10 462.52 615.81 457.21 C 610.85 453.04 609.46 446.12 610.28 439.96 C 610.37 427.66 611.97 415.32 610.48 403.05 C 609.97 398.62 610.33 394.06 609.29 389.72 C 605.26 386.78 601.29 383.40 599.35 378.68 C 594.69 367.75 594.35 355.65 593.69 343.96 C 593.19 319.62 595.30 295.31 598.26 271.17 C 622.59 264.21 646.84 256.97 671.15 249.93 C 675.36 258.69 678.76 267.81 681.96 276.98 C 673.05 279.08 664.06 280.83 655.16 282.98 C 648.79 302.63 654.56 323.98 663.87 341.69 C 674.32 338.24 684.71 334.62 695.16 331.15 C 698.70 353.22 699.47 375.71 697.70 397.99 C 701.59 396.72 705.38 395.19 709.27 393.90 C 711.70 371.64 710.63 349.09 707.58 326.94 C 715.53 324.06 723.65 321.63 731.56 318.66 C 733.65 308.49 733.76 297.64 731.79 287.36 C 730.21 280.31 727.45 272.59 720.91 268.71 C 711.96 269.74 703.34 272.86 694.39 273.99 C 691.15 264.54 687.23 255.28 682.31 246.58 C 705.43 239.97 728.47 233.10 751.56 226.39 M 602.93 351.94 C 602.33 363.88 608.22 376.10 618.11 382.89 C 626.44 388.94 637.20 391.55 647.38 389.90 C 644.75 387.55 641.29 386.53 638.31 384.73 C 629.25 379.95 620.64 373.80 614.71 365.31 C 610.24 359.11 607.56 351.89 604.88 344.79 C 603.21 346.74 603.37 349.54 602.93 351.94 Z" />
<path fill="#ffffff" opacity="1.00" d=" M 1231.41 285.39 C 1249.27 273.41 1272.11 271.36 1292.86 275.13 C 1311.55 278.46 1329.36 289.84 1337.82 307.19 C 1345.68 322.07 1346.26 339.59 1343.85 355.92 C 1311.12 355.82 1278.39 355.88 1245.66 355.90 C 1246.79 362.59 1250.91 368.69 1256.57 372.40 C 1265.06 378.37 1275.97 379.55 1286.07 378.66 C 1296.79 377.75 1307.27 374.05 1315.98 367.69 C 1323.46 375.30 1330.53 383.29 1337.87 391.03 C 1336.34 393.84 1333.01 395.48 1330.56 397.55 C 1310.39 411.92 1284.27 415.59 1260.18 411.85 C 1243.64 409.19 1227.45 401.39 1216.83 388.15 C 1203.76 372.30 1200.41 350.42 1203.33 330.55 C 1205.97 312.51 1216.02 295.42 1231.41 285.39 M 1258.91 310.86 C 1251.24 314.81 1246.37 323.13 1245.99 331.67 C 1265.62 331.58 1285.25 331.68 1304.89 331.62 C 1304.51 322.61 1299.34 313.83 1290.99 310.08 C 1280.93 305.61 1268.71 305.75 1258.91 310.86 Z" />
<path fill="#ffffff" opacity="1.00" d=" M 565.62 275.72 C 572.38 273.77 579.48 276.31 584.95 280.33 C 582.14 290.95 578.62 301.38 575.79 311.99 C 564.38 310.34 551.90 307.09 544.37 297.68 C 544.51 295.83 545.96 294.33 546.76 292.70 C 551.20 285.45 557.04 278.01 565.62 275.72 Z" />
<path fill="#ffffff" opacity="1.00" d=" M 309.07 276.32 C 323.08 276.38 337.09 276.46 351.10 276.28 C 351.72 291.49 351.18 306.76 351.36 322.00 C 351.34 351.30 351.41 380.60 351.33 409.91 C 337.19 409.83 323.06 409.89 308.93 409.87 C 308.86 375.25 308.92 340.62 308.90 306.00 C 309.00 296.11 308.68 286.20 309.07 276.32 Z" />
<path fill="#ffffff" opacity="1.00" d=" M 711.56 280.41 C 713.88 279.89 716.20 279.32 718.59 279.14 C 723.84 289.04 724.00 300.74 722.71 311.62 C 704.69 317.42 686.87 323.85 668.88 329.75 C 663.92 317.67 660.41 304.20 663.11 291.15 C 679.25 287.54 695.41 284.02 711.56 280.41 Z" />
<path fill="#ffffff" opacity="1.00" d=" M 531.84 357.24 C 529.43 340.10 530.89 320.92 541.88 306.79 C 550.50 315.05 562.36 319.39 574.15 320.25 C 571.51 335.15 568.72 350.05 567.16 365.12 C 556.30 360.94 544.72 355.84 532.84 358.29 C 532.59 358.03 532.09 357.51 531.84 357.24 Z" />
<path fill="#ffffff" opacity="1.00" d=" M 539.49 368.41 C 548.68 366.30 557.89 370.33 565.33 375.48 C 565.27 380.14 566.51 384.87 569.34 388.63 C 573.50 394.20 578.75 399.18 581.24 405.83 C 582.15 408.44 583.44 411.43 581.95 414.10 C 580.63 413.77 579.07 414.04 577.97 413.14 C 573.67 409.65 569.78 405.59 564.95 402.83 C 565.85 411.62 567.91 420.26 568.88 429.03 C 568.85 431.40 568.00 435.07 564.97 434.91 C 561.68 435.53 560.73 431.74 559.16 429.72 C 558.74 432.53 558.24 435.36 556.79 437.85 C 555.19 437.69 553.15 438.44 551.96 436.98 C 549.42 433.81 549.66 429.53 548.93 425.76 C 547.50 427.80 546.44 431.54 543.23 430.85 C 539.96 429.51 539.05 425.72 538.17 422.66 C 534.43 405.69 536.67 388.24 535.97 371.05 C 535.95 369.13 538.10 368.89 539.49 368.41 Z" />
<path fill="#ffffff" opacity="1.00" d=" M 923.29 485.33 C 930.79 477.26 944.26 477.25 953.02 483.31 C 952.19 487.18 949.71 490.40 948.04 493.92 C 944.62 492.09 939.81 490.86 936.57 493.63 C 934.19 495.50 934.97 498.63 934.75 501.25 C 939.20 501.04 943.67 501.06 948.13 501.23 C 948.07 505.44 948.12 509.66 948.07 513.88 C 943.67 513.86 939.27 513.88 934.88 513.88 C 934.89 526.23 934.82 538.58 934.92 550.92 C 929.59 550.83 924.26 550.89 918.93 550.88 C 918.85 538.55 918.92 526.22 918.90 513.89 C 915.95 513.87 913.01 513.85 910.08 513.92 C 910.15 509.64 910.15 505.36 910.08 501.08 C 913.00 501.15 915.93 501.12 918.86 501.11 C 918.69 495.59 919.24 489.51 923.29 485.33 Z" />
<path fill="#ffffff" opacity="1.00" d=" M 64.67 480.09 C 82.47 480.17 100.27 480.10 118.07 480.13 C 118.11 484.52 118.15 488.92 118.04 493.32 C 105.66 493.36 93.27 493.45 80.89 493.27 C 80.45 498.39 80.45 503.60 80.89 508.73 C 92.60 508.54 104.31 508.64 116.02 508.68 C 116.15 513.07 116.11 517.47 116.07 521.87 C 104.27 521.87 92.46 521.88 80.66 521.87 C 80.75 527.15 80.31 532.47 80.89 537.73 C 93.61 537.54 106.32 537.64 119.04 537.68 C 119.14 542.07 119.11 546.47 119.07 550.87 C 100.94 550.89 82.80 550.83 64.67 550.90 C 64.61 527.30 64.61 503.70 64.67 480.09 Z" />
<path fill="#ffffff" opacity="1.00" d=" M 381.08 480.08 C 386.36 480.15 391.64 480.15 396.92 480.08 C 396.84 503.69 396.84 527.31 396.92 550.92 C 392.31 550.83 387.69 550.88 383.08 550.88 C 382.86 549.23 382.64 547.58 382.41 545.95 C 379.54 546.98 377.50 549.55 374.55 550.46 C 365.73 553.69 354.71 551.87 348.42 544.56 C 339.87 534.28 339.86 517.71 348.42 507.44 C 356.46 498.18 371.80 497.65 381.06 505.40 C 381.17 496.96 381.15 488.51 381.08 480.08 M 365.30 514.09 C 356.88 517.16 355.25 529.57 361.50 535.49 C 365.37 539.36 372.08 539.60 376.43 536.41 C 382.99 531.63 382.99 520.37 376.43 515.60 C 373.30 513.26 368.95 512.81 365.30 514.09 Z" />
<path fill="#ffffff" opacity="1.00" d=" M 675.08 480.08 C 680.36 480.15 685.64 480.15 690.92 480.08 C 690.84 503.69 690.84 527.31 690.92 550.92 C 686.30 550.83 681.69 550.88 677.08 550.88 C 676.86 549.23 676.64 547.58 676.41 545.95 C 673.54 546.99 671.50 549.55 668.54 550.47 C 659.73 553.69 648.71 551.87 642.42 544.56 C 633.87 534.28 633.86 517.71 642.42 507.44 C 650.46 498.18 665.80 497.65 675.06 505.40 C 675.17 496.96 675.15 488.51 675.08 480.08 M 659.29 514.09 C 650.88 517.16 649.25 529.57 655.50 535.49 C 659.37 539.36 666.08 539.60 670.43 536.41 C 676.99 531.63 676.99 520.37 670.43 515.59 C 667.29 513.26 662.94 512.81 659.29 514.09 Z" />
<path fill="#ffffff" opacity="1.00" d=" M 792.23 488.50 C 797.24 487.97 802.25 487.34 807.28 487.00 C 807.42 491.65 807.38 496.30 807.31 500.95 C 811.43 501.26 815.57 501.08 819.71 501.14 C 819.58 505.38 819.58 509.62 819.71 513.86 C 815.61 513.87 811.51 513.90 807.42 513.85 C 807.30 519.90 807.38 525.96 807.36 532.01 C 807.27 534.25 807.82 537.10 810.19 538.00 C 813.00 539.38 816.07 538.14 818.83 537.23 C 819.70 541.37 821.86 545.25 821.89 549.55 C 814.98 552.11 806.84 553.28 799.98 550.01 C 794.97 547.77 792.36 542.31 792.00 537.07 C 791.29 529.42 791.73 521.72 791.69 514.06 C 788.89 513.83 786.09 513.84 783.29 513.86 C 783.41 509.62 783.41 505.38 783.29 501.14 C 786.09 501.15 788.89 501.16 791.69 500.94 C 791.97 496.86 790.84 492.26 792.23 488.50 Z" />
<path fill="#ffffff" opacity="1.00" d=" M 1021.93 488.41 C 1027.07 488.19 1032.15 487.26 1037.29 487.00 C 1037.41 491.65 1037.38 496.30 1037.31 500.96 C 1041.43 501.25 1045.57 501.09 1049.71 501.14 C 1049.58 505.38 1049.58 509.62 1049.71 513.86 C 1045.61 513.86 1041.51 513.90 1037.42 513.86 C 1037.48 520.89 1037.00 527.98 1037.66 534.97 C 1039.09 539.85 1045.22 538.85 1048.83 537.23 C 1049.70 541.37 1051.86 545.25 1051.89 549.55 C 1044.98 552.11 1036.84 553.28 1029.98 550.01 C 1024.97 547.78 1022.36 542.31 1022.00 537.07 C 1021.29 529.42 1021.73 521.72 1021.69 514.05 C 1018.89 513.83 1016.08 513.84 1013.29 513.86 C 1013.41 509.62 1013.41 505.38 1013.29 501.14 C 1016.08 501.15 1018.89 501.16 1021.69 500.95 C 1021.71 496.77 1021.33 492.56 1021.93 488.41 Z" />
<path fill="#ffffff" opacity="1.00" d=" M 143.17 506.06 C 147.15 502.96 151.65 499.77 156.97 500.09 C 162.89 499.54 168.79 502.48 172.17 507.33 C 178.54 499.97 189.52 498.25 198.37 501.62 C 205.21 504.38 209.43 511.75 209.36 518.99 C 209.35 529.63 209.41 540.27 209.32 550.91 C 204.19 550.84 199.06 550.89 193.93 550.88 C 193.86 542.24 193.92 533.60 193.91 524.97 C 193.84 521.75 193.72 518.16 191.44 515.64 C 188.92 513.05 184.64 512.71 181.58 514.54 C 178.60 516.16 177.08 519.70 177.10 522.99 C 177.07 532.29 177.15 541.58 177.07 550.88 C 171.81 550.87 166.55 550.89 161.29 550.86 C 161.40 540.90 161.46 530.93 161.28 520.98 C 161.21 516.69 157.44 512.75 152.99 513.41 C 148.03 513.45 144.65 518.36 144.66 522.98 C 144.62 532.27 144.56 541.57 144.71 550.86 C 139.45 550.89 134.19 550.87 128.93 550.87 C 128.88 534.29 128.88 517.71 128.92 501.13 C 133.52 501.13 138.11 501.09 142.71 501.17 C 142.84 502.79 142.98 504.43 143.17 506.06 Z" />
<path fill="#ffffff" opacity="1.00" d=" M 242.71 501.70 C 250.83 498.61 260.86 499.66 267.50 505.54 C 273.20 510.62 275.91 518.47 275.66 526.00 C 275.91 533.53 273.20 541.38 267.50 546.46 C 259.05 553.87 245.40 553.73 236.74 546.71 C 236.53 555.09 236.60 563.48 236.71 571.86 C 231.45 571.89 226.19 571.87 220.93 571.88 C 220.88 548.29 220.88 524.71 220.93 501.13 C 225.52 501.13 230.10 501.09 234.69 501.16 C 234.87 502.80 235.08 504.44 235.33 506.08 C 238.05 505.08 239.95 502.65 242.71 501.70 M 244.25 514.04 C 236.22 516.88 234.14 528.31 239.46 534.51 C 242.83 538.89 249.40 539.74 254.12 537.14 C 261.73 533.00 262.22 520.69 255.33 515.64 C 252.17 513.36 247.93 512.79 244.25 514.04 Z" />
<path fill="#ffffff" opacity="1.00" d=" M 301.48 500.82 C 310.91 498.94 321.72 500.17 329.04 506.93 C 337.26 514.75 338.48 527.96 334.07 538.05 C 330.01 547.21 319.72 552.18 310.02 551.90 C 303.47 552.24 296.73 550.56 291.43 546.61 C 278.85 536.92 278.85 515.08 291.43 505.39 C 294.40 503.16 297.88 501.67 301.48 500.82 M 304.40 514.42 C 294.33 519.02 296.01 536.96 307.42 538.44 C 315.95 540.29 322.82 531.07 320.64 523.14 C 319.84 515.70 311.04 511.12 304.40 514.42 Z" />
<path fill="#ffffff" opacity="1.00" d=" M 411.00 509.97 C 419.22 498.88 435.90 497.44 447.58 503.48 C 454.25 507.10 458.46 514.45 458.86 521.96 C 458.95 524.91 458.85 527.87 458.75 530.84 C 446.50 531.07 434.23 530.55 422.00 531.10 C 423.20 535.20 427.02 538.00 431.14 538.66 C 436.22 539.41 441.63 538.83 446.14 536.25 C 447.04 535.86 448.32 534.57 449.12 535.89 C 451.26 538.41 453.88 540.52 455.81 543.21 C 456.54 544.56 454.65 545.22 453.89 545.94 C 445.64 551.97 434.70 553.15 424.92 550.96 C 417.27 549.16 410.38 543.70 407.75 536.17 C 404.81 527.58 405.61 517.44 411.00 509.97 M 426.68 514.67 C 423.98 516.12 422.82 519.07 422.08 521.87 C 429.47 522.40 436.90 522.04 444.31 522.09 C 443.63 519.60 443.01 516.77 440.76 515.21 C 436.73 512.34 430.95 512.33 426.68 514.67 Z" />
<path fill="#ffffff" opacity="1.00" d=" M 484.21 505.29 C 490.29 497.81 501.75 499.11 508.88 504.33 C 507.06 508.36 504.38 511.91 502.50 515.91 C 499.19 514.54 495.69 512.55 491.99 513.67 C 486.69 514.43 483.64 520.00 483.68 524.99 C 483.59 533.61 483.57 542.24 483.71 550.86 C 478.45 550.89 473.19 550.87 467.93 550.88 C 467.88 534.29 467.88 517.71 467.93 501.13 C 472.53 501.12 477.13 501.13 481.74 501.12 C 482.20 502.54 481.73 507.37 484.21 505.29 Z" />
<path fill="#ffffff" opacity="1.00" d=" M 518.99 504.98 C 525.22 499.84 534.15 498.87 541.70 501.24 C 544.96 502.17 547.33 504.80 550.41 506.05 C 550.64 504.40 550.86 502.76 551.08 501.12 C 555.69 501.11 560.30 501.16 564.92 501.08 C 564.84 517.69 564.84 534.31 564.92 550.92 C 560.31 550.83 555.69 550.88 551.08 550.88 C 550.86 549.23 550.64 547.58 550.41 545.95 C 547.54 546.98 545.50 549.55 542.55 550.46 C 534.60 553.33 524.92 552.25 518.44 546.57 C 512.67 541.47 509.97 533.58 510.10 526.00 C 509.97 518.20 512.83 510.01 518.99 504.98 M 533.30 514.09 C 524.88 517.16 523.25 529.57 529.50 535.49 C 533.37 539.36 540.08 539.60 544.43 536.41 C 550.99 531.63 550.99 520.37 544.43 515.59 C 541.29 513.26 536.95 512.81 533.30 514.09 Z" />
<path fill="#ffffff" opacity="1.00" d=" M 598.68 501.70 C 605.95 498.86 615.18 499.35 621.11 504.87 C 625.57 508.96 627.31 515.18 627.61 521.06 C 627.72 530.99 627.50 540.93 627.71 550.86 C 622.45 550.89 617.19 550.87 611.93 550.88 C 611.83 541.56 611.97 532.25 611.87 522.94 C 611.88 518.80 609.34 514.32 604.97 513.64 C 599.09 512.04 592.98 517.04 592.74 522.98 C 592.51 532.27 592.61 541.57 592.71 550.86 C 587.44 550.89 582.18 550.87 576.93 550.88 C 576.88 534.29 576.88 517.71 576.93 501.13 C 581.51 501.13 586.10 501.09 590.69 501.16 C 590.87 502.80 591.08 504.44 591.33 506.08 C 594.05 505.10 595.91 502.62 598.68 501.70 Z" />
<path fill="#ffffff" opacity="1.00" d=" M 718.48 500.82 C 727.90 498.94 738.71 500.17 746.03 506.93 C 754.26 514.75 755.48 527.96 751.07 538.05 C 747.01 547.21 736.72 552.18 727.02 551.90 C 720.47 552.24 713.72 550.56 708.43 546.61 C 695.85 536.92 695.85 515.08 708.43 505.39 C 711.40 503.16 714.87 501.67 718.48 500.82 M 721.40 514.42 C 711.33 519.02 713.01 536.96 724.42 538.44 C 732.95 540.29 739.81 531.07 737.64 523.15 C 736.84 515.70 728.04 511.12 721.40 514.42 Z" />
<path fill="#ffffff" opacity="1.00" d=" M 1141.66 501.66 C 1148.23 498.42 1156.08 500.33 1161.88 504.33 C 1160.07 508.36 1157.37 511.90 1155.51 515.90 C 1152.19 514.55 1148.69 512.55 1145.00 513.67 C 1139.69 514.43 1136.64 520.00 1136.68 524.99 C 1136.59 533.61 1136.57 542.24 1136.71 550.86 C 1131.44 550.89 1126.18 550.87 1120.93 550.87 C 1120.88 534.29 1120.88 517.71 1120.93 501.13 C 1125.53 501.12 1130.14 501.12 1134.75 501.13 C 1134.99 502.77 1135.27 504.41 1135.57 506.06 C 1138.01 505.26 1139.30 502.67 1141.66 501.66 Z" />
<path fill="#ffffff" opacity="1.00" d=" M 1182.48 500.82 C 1191.91 498.94 1202.72 500.17 1210.03 506.93 C 1218.26 514.75 1219.48 527.97 1215.07 538.05 C 1211.01 547.21 1200.72 552.18 1191.02 551.90 C 1184.47 552.24 1177.72 550.56 1172.43 546.61 C 1159.85 536.92 1159.85 515.08 1172.43 505.39 C 1175.40 503.16 1178.87 501.67 1182.48 500.82 M 1185.40 514.42 C 1175.32 519.01 1177.01 536.97 1188.43 538.45 C 1196.95 540.28 1203.81 531.07 1201.64 523.15 C 1200.84 515.70 1192.04 511.12 1185.40 514.42 Z" />
<path fill="#ffffff" opacity="1.00" d=" M 828.29 501.14 C 833.55 501.11 838.81 501.13 844.07 501.13 C 844.15 510.43 844.06 519.74 844.11 529.05 C 844.05 532.62 845.83 536.38 849.18 537.93 C 853.14 539.47 858.32 538.37 860.69 534.66 C 862.28 532.47 862.89 529.74 862.90 527.08 C 862.92 518.43 862.85 509.77 862.93 501.12 C 868.19 501.13 873.45 501.11 878.71 501.14 C 878.57 517.71 878.58 534.29 878.71 550.86 C 874.15 550.89 869.60 550.85 865.05 550.90 C 864.70 549.20 864.35 547.50 863.99 545.82 C 857.39 551.96 847.18 553.90 838.97 550.00 C 832.20 546.80 828.77 539.21 828.41 532.03 C 828.26 521.74 828.50 511.44 828.29 501.14 Z" />
<path fill="#ffffff" opacity="1.00" d=" M 955.29 501.14 C 960.55 501.11 965.81 501.13 971.08 501.13 C 971.18 510.75 971.00 520.38 971.15 530.00 C 971.31 534.20 974.52 538.47 978.98 538.56 C 984.62 539.37 989.47 534.43 989.79 529.00 C 990.08 519.72 989.77 510.41 989.93 501.12 C 995.19 501.13 1000.44 501.11 1005.71 501.14 C 1005.57 517.71 1005.58 534.29 1005.71 550.86 C 1001.15 550.89 996.60 550.85 992.05 550.90 C 991.69 549.20 991.35 547.50 990.99 545.82 C 986.52 549.57 980.98 552.43 974.97 551.91 C 967.75 552.32 960.56 548.01 957.67 541.35 C 954.60 535.00 955.47 527.81 955.37 521.00 C 955.33 514.38 955.46 507.76 955.29 501.14 Z" />
<path fill="#ffffff" opacity="1.00" d=" M 1059.29 501.14 C 1064.55 501.11 1069.81 501.13 1075.07 501.12 C 1075.15 510.43 1075.06 519.74 1075.11 529.05 C 1075.09 532.10 1076.30 535.28 1078.83 537.12 C 1081.36 538.97 1084.84 538.92 1087.71 537.90 C 1091.94 536.21 1093.98 531.41 1093.90 527.08 C 1093.92 518.43 1093.85 509.78 1093.93 501.13 C 1099.18 501.13 1104.44 501.11 1109.71 501.14 C 1109.58 517.71 1109.57 534.29 1109.71 550.86 C 1105.15 550.89 1100.60 550.85 1096.05 550.90 C 1095.69 549.20 1095.35 547.50 1094.99 545.83 C 1090.52 549.57 1084.98 552.44 1078.97 551.91 C 1071.75 552.32 1064.56 548.01 1061.67 541.35 C 1058.60 535.00 1059.47 527.81 1059.37 521.00 C 1059.33 514.38 1059.46 507.76 1059.29 501.14 Z" />
</g>
</svg>
